<?xml version="1.0" standalone="no"?>
<!DOCTYPE svg PUBLIC "-//W3C//DTD SVG 20010904//EN"
 "http://www.w3.org/TR/2001/REC-SVG-20010904/DTD/svg10.dtd">
<svg version="1.0" xmlns="http://www.w3.org/2000/svg"
 width="512.000000pt" height="512.000000pt" viewBox="0 0 512.000000 512.000000"
 preserveAspectRatio="xMidYMid meet">

<g transform="translate(0.000000,512.000000) scale(0.100000,-0.100000)"
fill="#000000" stroke="none">
<path d="M2370 5114 c-19 -2 -78 -9 -130 -15 -791 -90 -1522 -586 -1924 -1305
-146 -262 -252 -588 -297 -914 -18 -125 -18 -515 0 -640 105 -762 511 -1409
1146 -1826 609 -400 1377 -517 2090 -317 929 260 1646 1043 1819 1987 156 845
-103 1682 -705 2285 -399 398 -879 639 -1449 726 -100 15 -472 28 -550 19z
m395 -304 c498 -46 977 -263 1348 -610 303 -284 542 -695 640 -1101 49 -201
61 -309 61 -539 0 -230 -12 -338 -61 -539 -78 -325 -246 -653 -471 -921 -296
-354 -732 -624 -1183 -733 -201 -49 -309 -61 -539 -61 -231 0 -338 12 -540 61
-396 96 -810 334 -1087 626 -456 480 -682 1125 -623 1772 54 583 345 1143 790
1518 464 390 1069 582 1665 527z"/>
<path d="M2488 4389 c-68 -35 -78 -71 -78 -279 0 -161 2 -185 20 -220 23 -45
80 -80 130 -80 50 0 107 35 130 80 18 35 20 59 20 220 0 161 -2 185 -20 220
-37 73 -127 99 -202 59z"/>
<path d="M1631 4158 c-19 -12 -43 -39 -53 -58 -32 -59 -20 -103 68 -258 94
-163 123 -198 175 -212 105 -29 209 71 184 177 -10 43 -179 325 -208 347 -15
11 -48 21 -79 24 -44 3 -59 0 -87 -20z"/>
<path d="M1020 3542 c-57 -31 -83 -77 -78 -140 3 -31 13 -64 24 -79 22 -29
304 -198 347 -208 106 -25 206 79 177 184 -14 53 -52 84 -214 176 -154 87
-198 99 -256 67z"/>
<path d="M2395 3496 c-370 -72 -657 -339 -757 -703 -31 -112 -31 -354 0 -466
93 -341 350 -596 692 -689 72 -19 107 -23 235 -22 168 1 253 18 377 76 l68 31
68 -31 c126 -58 219 -76 387 -76 173 1 249 17 389 82 266 125 450 345 528 632
33 122 33 338 0 460 -78 287 -262 507 -528 632 -139 65 -216 81 -389 82 -168
0 -260 -18 -387 -76 l-68 -31 -68 31 c-38 18 -104 41 -148 52 -103 27 -302 35
-399 16z m282 -297 c35 -6 63 -13 63 -15 0 -2 -18 -27 -40 -56 -57 -73 -136
-237 -162 -333 -17 -66 -21 -108 -21 -235 0 -127 4 -169 21 -235 26 -96 105
-260 162 -333 22 -29 40 -54 40 -56 0 -8 -129 -26 -186 -26 -234 1 -469 149
-573 360 -94 193 -94 387 0 580 33 67 60 102 123 166 156 156 357 220 573 183z
m918 -4 c39 -8 108 -33 155 -56 169 -83 307 -260 345 -444 31 -146 12 -285
-56 -425 -59 -119 -170 -230 -289 -289 -193 -94 -387 -94 -580 0 -169 83 -307
260 -345 444 -31 146 -12 285 56 425 82 167 259 306 439 344 86 19 189 19 275
1z"/>
<path d="M788 2689 c-43 -22 -78 -81 -78 -129 0 -50 35 -107 80 -130 35 -18
59 -20 220 -20 161 0 185 2 220 20 45 23 80 80 80 130 0 50 -35 107 -80 130
-35 18 -58 20 -222 20 -162 -1 -187 -3 -220 -21z"/>
<path d="M1265 1984 c-132 -70 -287 -168 -302 -190 -9 -14 -18 -49 -21 -77 -3
-42 1 -58 20 -86 33 -48 83 -73 135 -68 47 5 288 136 349 189 81 71 60 194
-43 247 -35 18 -87 13 -138 -15z"/>
<path d="M1814 1490 c-45 -14 -78 -56 -168 -212 -88 -155 -100 -199 -68 -258
31 -57 77 -83 140 -78 31 3 64 13 79 24 14 11 67 89 117 174 83 141 91 160 91
207 0 102 -94 172 -191 143z"/>
<path d="M2488 1289 c-68 -35 -78 -71 -78 -279 0 -210 10 -244 80 -280 50 -25
90 -25 140 0 70 36 80 70 80 280 0 161 -2 185 -20 220 -37 73 -127 99 -202 59z"/>
</g>
</svg>
